<?xml version="1.0" encoding="UTF-8" standalone="no"?>
<!-- Created with Inkscape (http://www.inkscape.org/) -->

<svg
   xmlns:dc="http://purl.org/dc/elements/1.1/"
   xmlns:cc="http://creativecommons.org/ns#"
   xmlns:rdf="http://www.w3.org/1999/02/22-rdf-syntax-ns#"
   xmlns:svg="http://www.w3.org/2000/svg"
   xmlns="http://www.w3.org/2000/svg"
   xmlns:sodipodi="http://sodipodi.sourceforge.net/DTD/sodipodi-0.dtd"
   xmlns:inkscape="http://www.inkscape.org/namespaces/inkscape"
   id="svg9432"
   version="1.1"
   inkscape:version="0.48.2 r9819"
   width="720"
   height="720"
   xml:space="preserve"
   sodipodi:docname="GitHub_Logo.svg"
   inkscape:export-filename="C:\Projects\MartyArrivesToday\design\GitHub_Logo.png"
   inkscape:export-xdpi="90"
   inkscape:export-ydpi="90"><metadata
     id="metadata9438"><rdf:RDF><cc:Work
         rdf:about=""><dc:format>image/svg+xml</dc:format><dc:type
           rdf:resource="http://purl.org/dc/dcmitype/StillImage" /><dc:title></dc:title></cc:Work></rdf:RDF></metadata><defs
     id="defs9436"><clipPath
       clipPathUnits="userSpaceOnUse"
       id="clipPath9446"><path
         d="M 0,576 576,576 576,0 0,0 0,576 z"
         id="path9448" /></clipPath></defs><sodipodi:namedview
     pagecolor="#ffffff"
     bordercolor="#666666"
     borderopacity="1"
     objecttolerance="10"
     gridtolerance="10"
     guidetolerance="10"
     inkscape:pageopacity="0"
     inkscape:pageshadow="2"
     inkscape:window-width="1366"
     inkscape:window-height="706"
     id="namedview9434"
     showgrid="false"
     inkscape:zoom="1"
     inkscape:cx="508.54237"
     inkscape:cy="334.13559"
     inkscape:window-x="-8"
     inkscape:window-y="-8"
     inkscape:window-maximized="1"
     inkscape:current-layer="g9440" /><g
     id="g9440"
     inkscape:groupmode="layer"
     inkscape:label="GitHub_Logo"
     transform="matrix(1.25,0,0,-1.25,0,720)"><g
       id="g9442"
       inkscape:export-filename="C:\Projects\MartyArrivesToday\design\githublogo.png"
       inkscape:export-xdpi="90"
       inkscape:export-ydpi="90"
       transform="matrix(0.19563535,0,0,0.19563535,231.8045,231.42987)"><g
         id="g9444"
         clip-path="url(#clipPath9446)"><g
           id="g9450"
           transform="translate(82.1611,303.1865)"><path
             d="m 0,0 c 0,-10.31 4.709,-15.463 14.12,-15.463 9.115,0 13.672,5.222 13.672,15.686 0,4.333 -1.042,8.074 -3.136,11.209 -2.538,3.434 -6.049,5.153 -10.536,5.153 C 4.709,16.585 0,11.057 0,0 m 34.522,-86.072 c 0,7.626 -6.279,11.431 -18.833,11.431 -12.105,0 -18.154,-3.958 -18.154,-11.883 0,-7.764 6.573,-11.647 19.72,-11.647 11.509,0 17.267,4.028 17.267,12.099 m -0.9,117.903 c 7.175,0 15.468,1.787 24.882,5.375 l 0,-23.086 c -2.094,-0.743 -5.084,-1.562 -8.967,-2.462 1.195,-3.442 1.796,-6.65 1.796,-9.644 0,-9.556 -2.879,-17.89 -8.633,-24.993 -5.751,-7.09 -13.185,-11.317 -22.302,-12.665 -5.976,-0.887 -8.965,-4.103 -8.965,-9.631 0,-1.946 0.972,-3.89 2.913,-5.835 2.538,-2.833 6.275,-4.633 11.21,-5.375 21.367,-3.286 32.048,-12.175 32.048,-26.678 0,-23.154 -13.821,-34.747 -41.466,-34.747 -11.36,0 -20.698,2.029 -28.021,6.056 -9.262,5.078 -13.898,13.079 -13.898,23.99 0,12.55 6.949,21.148 20.846,25.773 l 0,0.452 c -5.076,3.132 -7.618,7.917 -7.618,14.342 0,8.376 2.392,13.599 7.174,15.689 l 0,0.452 c -4.782,1.638 -9.043,5.383 -12.775,11.21 -4.185,6.271 -6.275,12.998 -6.275,20.169 0,10.761 3.809,19.724 11.428,26.898 7.324,6.723 16.064,10.085 26.225,10.085 7.324,0 14.124,-1.788 20.398,-5.375"
             style="fill:#2c292a;fill-opacity:1;fill-rule:evenodd;stroke:none"
             id="path9452"
             inkscape:connector-curvature="0" /></g><g
           id="g9454"
           transform="translate(164.4326,356.7627)"><path
             d="m 0,0 c -4.33,0 -8.032,1.643 -11.095,4.924 -3.063,3.292 -4.594,7.175 -4.594,11.661 0,4.629 1.531,8.588 4.594,11.88 3.063,3.285 6.765,4.931 11.095,4.931 4.181,0 7.813,-1.646 10.869,-4.931 3.067,-3.292 4.594,-7.251 4.594,-11.88 0,-4.486 -1.527,-8.369 -4.594,-11.661 C 7.813,1.643 4.181,0 0,0"
             style="fill:#2c292a;fill-opacity:1;fill-rule:evenodd;stroke:none"
             id="path9456"
             inkscape:connector-curvature="0" /></g><g
           id="g9458"
           transform="translate(152.1045,239.7559)"><path
             d="m 0,0 0,15.237 0,69.714 0,14.571 24.43,0 0,-14.123 0,-68.814 L 24.43,0 0,0 z"
             style="fill:#2c292a;fill-opacity:1;fill-rule:evenodd;stroke:none"
             id="path9460"
             inkscape:connector-curvature="0" /></g><g
           id="g9462"
           transform="translate(223.3682,339.2783)"><path
             d="m 0,0 19.499,0 0,-21.298 -4.146,0 -5.716,0 -9.637,0 0,-41.693 c 0,-10.015 3.289,-15.023 9.862,-15.023 4.629,0 8.818,1.271 12.547,3.814 l 0,-22.404 c -5.529,-3.002 -12.171,-4.488 -19.947,-4.488 -10.903,0 -18.453,3.882 -22.634,11.654 -3.14,5.827 -4.709,15.015 -4.709,27.573 l 0,40.119 0,0.448 -3.14,0 -7.622,0 0,21.298 10.984,0 0,8.736 0,10.089 L 0,18.825 0,9.188 0,0 z"
             style="fill:#2c292a;fill-opacity:1;fill-rule:evenodd;stroke:none"
             id="path9464"
             inkscape:connector-curvature="0" /></g><g
           id="g9466"
           transform="translate(302.0977,339.9521)"><path
             d="m 0,0 c -6.416,0 -13.139,-2.248 -20.172,-6.734 l 0,39.23 0,16.815 -24.426,0 0,-16.815 0,-118.58 0,-14.112 24.426,0 0,5.556 0,8.556 0,55.142 c 5.234,4.935 10.303,7.4 15.249,7.4 5.681,0 10.015,-2.833 13.001,-8.515 2.244,-4.486 3.361,-10.084 3.361,-16.81 l -0.12,-30.265 0,-21.064 24.998,0 0,20.621 0,30.708 c 0,12.998 -2.909,24.058 -8.736,33.17 C 21.004,-5.233 11.815,0 0,0"
             style="fill:#2c292a;fill-opacity:1;fill-rule:evenodd;stroke:none"
             id="path9468"
             inkscape:connector-curvature="0" /></g><g
           id="g9470"
           transform="translate(381.4551,238.8604)"><path
             d="m 0,0 c -11.807,0 -20.543,5.229 -26.225,15.682 -4.479,8.529 -6.722,19.647 -6.722,33.399 l 0,30.716 0,20.621 24.948,0 0,-21.072 -0.071,-30.265 c 0,-8.515 0.972,-14.64 2.918,-18.377 2.243,-4.64 6.362,-6.952 12.327,-6.952 4.188,0 8.897,2.466 14.112,7.404 l 0,55.138 0,8.737 0,5.387 24.671,0 0,-14.124 0,-68.591 0,-16.807 -23.981,0 0,8.062 C 15.085,2.986 7.772,0 0,0"
             style="fill:#2c292a;fill-opacity:1;fill-rule:evenodd;stroke:none"
             id="path9472"
             inkscape:connector-curvature="0" /></g><g
           id="g9474"
           transform="translate(478.9756,316.4102)"><path
             d="m 0,0 c -4.924,0 -10.085,-2.465 -15.46,-7.4 l 0,-38.772 c 4.778,-4.64 9.487,-6.952 14.112,-6.952 5.827,0 10.23,3.216 13.232,9.64 2.388,5.077 3.575,11.13 3.575,18.159 C 15.459,-8.441 10.298,0 0,0 m 3.361,-77.328 c -8.071,0 -14.794,2.918 -20.169,8.736 l 0,-8.062 -23.086,0 0,14.112 0,118.58 0,16.815 24.434,0 0,-16.815 0,-39.005 c 6.868,4.334 13.592,6.509 20.169,6.509 11.792,0 21.071,-5.233 27.795,-15.697 5.682,-9.112 8.507,-20.172 8.507,-33.17 0,-13.304 -2.987,-24.882 -8.959,-34.744 C 24.885,-71.578 15.313,-77.328 3.361,-77.328"
             style="fill:#2c292a;fill-opacity:1;fill-rule:evenodd;stroke:none"
             id="path9476"
             inkscape:connector-curvature="0" /></g><g
           id="g9478"
           transform="translate(169.1182,218.2627)"><path
             d="m 0,0 c -1.42,1.93 -3.246,3.155 -5.735,3.155 -2.393,0 -4.674,-1.838 -4.674,-4.319 0,-6.447 15.18,-3.752 15.18,-16.608 0,-7.665 -4.771,-13.101 -12.592,-13.101 -5.283,0 -9.143,3.048 -11.784,7.466 l 4.827,4.724 c 1.015,-2.956 3.706,-5.589 6.911,-5.589 3.04,0 4.927,2.587 4.927,5.543 0,3.951 -3.66,5.069 -6.658,6.233 -4.927,2.036 -8.534,4.525 -8.534,10.467 0,6.355 4.725,11.477 11.172,11.477 3.407,0 8.128,-1.669 10.463,-4.257 L 0,0 z"
             style="fill:#2c292a;fill-opacity:1;fill-rule:nonzero;stroke:none"
             id="path9480"
             inkscape:connector-curvature="0" /></g><g
           id="g9482"
           transform="translate(194.915,220.3457)"><path
             d="m 0,0 c -7.056,0 -11.226,-6.248 -11.226,-12.436 0,-5.895 2.949,-13.162 11.226,-13.162 8.281,0 11.222,7.267 11.222,13.162 C 11.222,-6.248 7.06,0 0,0 m 0,-32.956 c -11.685,0 -18.947,8.943 -18.947,20.215 0,11.378 7.523,20.106 18.947,20.106 11.428,0 18.943,-8.728 18.943,-20.106 0,-11.272 -7.266,-20.215 -18.943,-20.215"
             style="fill:#2c292a;fill-opacity:1;fill-rule:nonzero;stroke:none"
             id="path9484"
             inkscape:connector-curvature="0" /></g><g
           id="g9486"
           transform="translate(243.1084,216.5322)"><path
             d="m 0,0 c -2.087,2.55 -5.233,4.073 -8.431,4.073 -7.167,0 -11.275,-6.599 -11.275,-13.216 0,-6.439 4.262,-12.894 11.218,-12.894 3.201,0 6.401,1.684 8.488,4.058 l 0,-8.881 c -2.795,-1.326 -5.59,-2.283 -8.683,-2.283 -10.77,0 -18.745,9.296 -18.745,19.855 0,10.865 7.669,20.467 18.898,20.467 2.994,0 5.942,-0.811 8.53,-2.228 L 0,0 z"
             style="fill:#2c292a;fill-opacity:1;fill-rule:nonzero;stroke:none"
             id="path9488"
             inkscape:connector-curvature="0" /></g><path
           d="m 255.497,188.4 -7.473,0 0,38.301 7.473,0 0,-38.301 z"
           style="fill:#2c292a;fill-opacity:1;fill-rule:nonzero;stroke:none"
           id="path9490"
           inkscape:connector-curvature="0" /><g
           id="g9492"
           transform="translate(275.1992,216.4941)"><path
             d="m 0,0 -0.1,0 -4.215,-13.928 9.089,0 L 0,0 z m -6.455,-20.023 -3.144,-8.071 -7.875,0 14.939,39.311 5.789,0 14.517,-39.311 -7.97,0 -2.941,8.071 -13.315,0 z"
             style="fill:#2c292a;fill-opacity:1;fill-rule:nonzero;stroke:none"
             id="path9494"
             inkscape:connector-curvature="0" /></g><g
           id="g9496"
           transform="translate(302.7334,194.9014)"><path
             d="m 0,0 10.552,0 0,-6.501 -18.032,0 0,38.301 L 0,31.8 0,0 z"
             style="fill:#2c292a;fill-opacity:1;fill-rule:nonzero;stroke:none"
             id="path9498"
             inkscape:connector-curvature="0" /></g><g
           id="g9500"
           transform="translate(355.9502,216.5322)"><path
             d="m 0,0 c -2.091,2.55 -5.237,4.073 -8.438,4.073 -7.167,0 -11.272,-6.599 -11.272,-13.216 0,-6.439 4.266,-12.894 11.218,-12.894 3.201,0 6.401,1.684 8.492,4.058 l 0,-8.881 c -2.788,-1.326 -5.598,-2.283 -8.684,-2.283 -10.773,0 -18.752,9.296 -18.752,19.855 0,10.865 7.673,20.467 18.89,20.467 3.002,0 5.949,-0.811 8.546,-2.228 L 0,0 z"
             style="fill:#2c292a;fill-opacity:1;fill-rule:nonzero;stroke:none"
             id="path9502"
             inkscape:connector-curvature="0" /></g><g
           id="g9504"
           transform="translate(377.9863,220.3457)"><path
             d="m 0,0 c -7.066,0 -11.232,-6.248 -11.232,-12.436 0,-5.895 2.948,-13.162 11.232,-13.162 8.27,0 11.218,7.267 11.218,13.162 C 11.218,-6.248 7.053,0 0,0 m 0,-32.956 c -11.684,0 -18.951,8.943 -18.951,20.215 0,11.378 7.519,20.106 18.951,20.106 11.417,0 18.937,-8.728 18.937,-20.106 0,-11.272 -7.267,-20.215 -18.937,-20.215"
             style="fill:#2c292a;fill-opacity:1;fill-rule:nonzero;stroke:none"
             id="path9506"
             inkscape:connector-curvature="0" /></g><g
           id="g9508"
           transform="translate(408.0488,194.9014)"><path
             d="m 0,0 1.201,0 c 9.212,0 12.765,5.076 12.765,12.642 0,8.337 -4.273,12.649 -12.765,12.649 L 0,25.291 0,0 z m -7.481,31.8 10.681,0 c 11.057,0 18.484,-8.285 18.484,-19.196 0,-10.782 -7.626,-19.105 -18.538,-19.105 l -10.627,0 0,38.301 z"
             style="fill:#2c292a;fill-opacity:1;fill-rule:nonzero;stroke:none"
             id="path9510"
             inkscape:connector-curvature="0" /></g><path
           d="m 440.844,188.4 -7.466,0 0,38.301 7.466,0 0,-38.301 z"
           style="fill:#2c292a;fill-opacity:1;fill-rule:nonzero;stroke:none"
           id="path9512"
           inkscape:connector-curvature="0" /><g
           id="g9514"
           transform="translate(446.2715,227.7109)"><path
             d="m 0,0 5.391,0 20.154,-26.761 0.106,0 0,25.751 7.466,0 0,-39.066 -5.375,0 -20.177,26.768 -0.084,0 0,-26.003 -7.481,0 L 0,0 z"
             style="fill:#2c292a;fill-opacity:1;fill-rule:nonzero;stroke:none"
             id="path9516"
             inkscape:connector-curvature="0" /></g><g
           id="g9518"
           transform="translate(518.6543,208.7676)"><path
             d="m 0,0 0,-0.965 c 0,-10.818 -5.536,-20.413 -17.42,-20.413 -11.187,0 -18.247,9.448 -18.247,20 0,10.927 7.259,20.321 18.69,20.321 6.509,0 12.191,-3.299 15.139,-9.141 L -8.431,6.248 c -1.531,3.454 -4.786,6.096 -8.737,6.096 -7.213,0 -10.773,-7.359 -10.773,-13.722 0,-6.34 3.599,-13.399 10.828,-13.399 4.67,0 8.575,4.065 8.713,8.682 l -8.124,0 0,6.095 L 0,0 z"
             style="fill:#2c292a;fill-opacity:1;fill-rule:nonzero;stroke:none"
             id="path9520"
             inkscape:connector-curvature="0" /></g></g></g></g></svg>